PathFileType	4	(X/Y/Z)	C:/Users/beibeiliu/ov580/test_trc/User3\sequence.36_training_dense_left.trc
DataRate	CameraRate	NumFrames	NumMarkers	Units	OrigDataRate	OrigDataStartFrame	OrigNumFrames
120	120	19	19	mm	120	158	252
Frame#	Time	ThumbCMC			ThumbMCP			ThumbIP			ThumbTip			IndexMCP			IndexPIP			IndexTip			MiddleMCP			MiddlePIP			MiddleTip			RingMCP			RingPIP			RingTip			PinkyMCP			PinkyPIP			PinkyTip			BackHand1			BackHand2			BackHand3	
		X0	Y0	Z0	X1	Y1	Z1	X2	Y2	Z2	X3	Y3	Z3	X4	Y4	Z4	X5	Y5	Z5	X6	Y6	Z6	X7	Y7	Z7	X8	Y8	Z8	X9	Y9	Z9	X10	Y10	Z10	X11	Y11	Z11	X12	Y12	Z12	X13	Y13	Z13	X14	Y14	Z14	X15	Y15	Z15	X16	Y16	Z16	X17	Y17	Z17	X18	Y18	Z18	
157	1.30833	-76.5052	39.7658	-25.8216	-61.3958	27.9429	-45.0399	-40.2767	18.9799	-69.1399	-30.6113	10.062	-86.4284	-86.4438	59.0013	-102.783	-80.1729	56.3315	-128.141	-73.3536	49.4759	-155.265	-120.221	62.1161	-108.301	-115.928	55.3513	-140.229	-119.076	35.6392	-170.351	-139.963	40.5071	-103.197	-135.928	12.9758	-116.195	-131.128	-14.3264	-96.2259	-153.506	30.6218	-90.106	-146.84	4.90376	-92.9535	-133.834	-8.20842	-69.7588	-139.673	66.4345	-53.3481	-139.139	65.5204	-20.3582	-102.346	65.139	-35.8569	
158	1.31667	-80.9165	41.0438	-22.3341	-59.8435	32.501	-43.0074	-46.1481	25.3403	-63.7354	-33.7617	17.8236	-81.9762	-88.8294	68.1093	-96.3312	-79.7437	66.225	-122.595	-75.0774	58.5018	-147.142	-116.974	70.9815	-104.805	-115.211	66.3382	-130.235	-115.938	45.9487	-159.274	-137.433	46.6189	-101.244	-132.57	20.8767	-114.007	-129.824	-6.69009	-98.9632	-153.217	34.5678	-87.0679	-148.056	9.30278	-89.6899	-134.019	-4.64709	-64.6889	-139.591	66.8697	-42.246	-142.789	64.6367	-12.2137	-105.537	68.1217	-28.3316	
159	1.325	-81.8964	42.0819	-10.9549	-60.6071	37.3809	-36.3279	-45.2879	33.5709	-60.8617	-35.6904	26.8733	-79.8403	-86.9283	74.1581	-81.8991	-77.8119	74.6659	-114.876	-75.9312	64.2185	-135.803	-119.393	76.7717	-90.8036	-116.194	72.3721	-123.598	-110.149	50.3678	-150.69	-136.929	52.6811	-90.4476	-127.905	28.3681	-108.582	-121.832	0.022716	-93.6964	-149.29	39.7462	-80.3131	-140.033	15.0007	-85.2881	-128.417	-1.2619	-65.3993	-142.81	69.473	-33.4035	-145.631	63.9875	-5.3748	-111.245	69.3868	-19.3557	
160	1.33333	-85.9443	42.0205	-3.1698	-64.8073	39.4009	-27.5445	-46.4917	36.4686	-52.7649	-37.3493	32.586	-77.0163	-91.7372	79.256	-76.2911	-80.0151	78.7981	-103.516	-73.5146	63.3388	-129.726	-117.076	80.0804	-85.3605	-112.658	74.7205	-115.581	-107.693	49.0307	-143.057	-134.537	56.6385	-81.5711	-129.642	28.2867	-102.671	-121.256	3.63285	-89.9345	-151.044	39.865	-73.0239	-138.102	11.9288	-78.6103	-124.138	1.38423	-54.7491	-140.519	70.4647	-29.7424	-143.778	60.4426	2.00993	-110.69	69.8836	-8.02872	
161	1.34167	-87.4645	42.7339	0.823121	-63.346	38.8227	-22.4955	-49.5013	37.3063	-49.2094	-39.8354	33.6581	-71.4294	-89.9491	79.0991	-68.822	-79.9229	79.7656	-96.6286	-76.2785	61.9008	-123.816	-120.069	78.9488	-76.994	-115.884	75.6817	-110.095	-108.445	51.5721	-135.965	-136.621	56.9546	-80.4751	-126.854	34.0379	-98.0441	-120.271	3.02702	-84.0315	-151.455	40.9386	-68.0131	-138.136	17.2227	-75.975	-129.344	0.875442	-51.6807	-144.033	68.7326	-25.6546	-150.633	59.4391	3.60671	-116.589	69.0979	-5.9985	
162	1.35	-89.6687	42.9069	2.10523	-66.3064	38.5644	-21.4557	-49.9946	34.4363	-43.8277	-44.2467	31.4348	-66.0317	-91.0433	79.7565	-66.3545	-83.6816	77.7708	-99.4993	-76.9626	61.2965	-122.311	-120.976	81.0979	-77.3777	-112.942	76.2063	-109.9	-106.421	51.9996	-133.188	-134.364	56.2661	-79.4425	-130.337	33.2233	-95.2237	-122.256	4.4498	-83.6773	-151.869	40.1173	-69.1765	-141.626	13.6877	-73.0039	-128.994	1.04887	-45.4317	-146.139	68.3111	-21.1307	-150.576	60.4283	6.16223	-113.514	68.6599	-0.214215	
163	1.35833	-88.9948	41.8116	3.99762	-69.955	36.3957	-16.2031	-51.5891	34.151	-45.5172	-44.5837	28.3326	-63.345	-93.3522	77.0288	-65.489	-84.985	76.185	-96.5905	-78.3386	61.8705	-118.003	-120.381	79.4014	-74.7222	-118.076	75.4659	-104.366	-107.449	52.558	-130.164	-137.799	55.4998	-73.707	-130.222	33.9369	-93.9043	-119.727	3.41481	-80.6229	-151.08	39.7056	-64.5286	-140.534	14.3913	-71.4601	-132.656	1.2292	-47.5281	-148.431	68.2247	-18.2117	-149.455	58.8624	11.2339	-114.975	65.9957	2.5526	
164	1.36667	-92.3672	40.596	4.27467	-72.1024	34.3675	-15.6778	-57.6243	31.8858	-43.1773	-45.509	26.9026	-62.3098	-93.6194	76.0033	-65.9859	-84.0173	74.6456	-94.1832	-80.1121	59.8454	-115.552	-121.028	77.7071	-71.1852	-118.811	73.4728	-104.903	-112.203	48.3434	-130.945	-138.691	53.2994	-73.4548	-134.911	29.2484	-92.4759	-123.287	3.12805	-79.3189	-155.684	37.1112	-62.5523	-139.752	12.406	-68.8756	-129.177	0.693308	-42.7631	-149.992	64.5007	-17.6455	-155.646	56.8317	13.2303	-117.716	67.2243	-0.0367357	
165	1.375	-92.5922	40.4582	4.95475	-75.5236	33.9969	-16.5423	-58.4464	30.311	-43.5991	-49.6929	24.8322	-63.4954	-96.3943	73.6488	-62.2223	-89.1124	71.1633	-95.4974	-84.0152	56.5536	-117.101	-126.306	75.2329	-73.1164	-120.329	70.6481	-106.765	-110.417	46.9333	-130.089	-137.619	51.9639	-73.6942	-132.986	25.2806	-91.5628	-124.647	0.427058	-76.4363	-153.969	35.6681	-64.0187	-147.181	9.34668	-68.4191	-134.384	0.46154	-43.6655	-153.645	65.8027	-17.2752	-154.829	59.2182	10.7803	-123.355	66.7529	0.69573	
166	1.38333	-92.6147	38.4518	6.10292	-73.3244	31.766	-15.0617	-55.6133	28.8537	-41.5073	-53.8906	23.2855	-63.3614	-98.2523	70.8993	-61.6658	-88.7242	69.3702	-94.378	-79.1743	51.9128	-117.448	-126.221	75.2453	-74.7707	-121.078	68.9179	-105.629	-114.109	43.7381	-130.248	-145.125	50.2557	-72.4223	-135.491	26.0635	-90.1552	-130.71	-1.65585	-74.4951	-158.535	31.561	-64.7203	-144.033	8.6693	-66.0105	-137.338	-3.69234	-41.4903	-155.455	64.2899	-16.3459	-154.85	56.4777	13.054	-119.362	64.3965	-0.00530129	
167	1.39167	-94.8727	36.1666	10.0746	-75.3244	31.4533	-16.8872	-57.6794	26.6191	-37.7476	-51.0663	20.9726	-62.3573	-98.892	71.4987	-65.2208	-91.1566	67.6952	-94.9024	-84.229	49.8194	-116.415	-129.88	72.222	-73.2274	-124.044	67.9321	-102.897	-119.098	41.2624	-129.347	-143.303	49.25	-69.5451	-138.324	22.9442	-90.0603	-130.939	-4.9366	-72.1536	-158.441	33.4938	-61.8179	-150.216	6.30715	-66.4984	-140.3	-7.45327	-41.81	-155.489	63.713	-17.858	-157.5	54.2458	13.1445	-121.053	62.7234	-0.337101	
168	1.4	-98.5234	35.9588	5.9346	-77.8043	28.8277	-12.3045	-63.075	25.4313	-40.4692	-51.1939	19.2935	-60.3739	-100.775	69.6517	-63.2337	-93.3988	66.5379	-94.6829	-87.5374	49.8271	-116.35	-128.542	71.2648	-73.3138	-125.655	66.5438	-103.145	-118.68	38.566	-130.581	-144.83	45.5031	-74.557	-136.584	21.1913	-88.8552	-131.146	-3.97689	-73.9688	-161.053	31.0323	-61.6639	-147.931	4.7904	-66.1232	-138.577	-5.90974	-43.8969	-156.121	61.2319	-15.7073	-161.109	53.2736	12.1685	-123.251	63.4946	3.06065	
169	1.40833	-97.863	33.0922	11.5202	-82.199	28.3312	-15.7047	-66.6508	24.3789	-40.6977	-57.1145	17.1781	-58.1591	-103.208	67.0956	-62.5058	-92.2234	64.3943	-91.8125	-87.0059	48.0941	-112.728	-134.254	67.9322	-71.0514	-124.559	62.9357	-103.927	-119.658	39.5434	-127.025	-147.968	45.3434	-69.4438	-144.252	18.7324	-89.0462	-134.021	-11.0291	-70.2808	-160.31	29.0238	-61.5256	-153.764	1.46707	-64.4202	-142.833	-9.84253	-41.1999	-157.026	58.2903	-14.9564	-161.189	53.2572	15.2775	-128.276	61.2424	2.50404	
170	1.41667	-100.634	33.3758	8.28109	-79.5642	25.4781	-11.3233	-66.5471	21.0711	-34.4881	-58.4889	14.3392	-59.885	-107.377	64.6457	-64.7404	-98.2591	61.7047	-90.7404	-92.1932	44.2041	-113.531	-137.407	65.877	-72.4872	-127.495	60.4127	-103.616	-126.47	34.7155	-124.86	-152.362	39.8529	-73.52	-143.548	13.5697	-87.4448	-136.364	-10.1079	-71.8524	-167.764	24.6299	-59.9008	-154.818	1.68447	-64.4277	-142.995	-10.3616	-36.8882	-163.966	53.7404	-14.8241	-167.511	49.4592	14.9345	-132.128	58.597	4.3405	
171	1.425	-103.477	31.3692	11.2451	-86.5403	23.3951	-11.833	-71.9101	19.5364	-37.8064	-63.1713	13.1027	-55.0873	-109.944	61.6608	-64.3901	-104.067	57.8225	-90.3137	-96.3974	40.4896	-113.847	-139.544	63.0466	-70.5308	-132.949	58.576	-98.7647	-126.422	30.5782	-125.189	-152.911	38.6358	-69.0249	-148.58	14.8796	-86.3122	-138.017	-15.2263	-67.631	-170.369	22.3433	-57.1369	-156.661	-3.61988	-62.5458	-146.826	-13.2933	-38.703	-166.356	52.5069	-17.427	-168.71	47.3475	18.4612	-130.916	55.2636	5.7269	
172	1.43333	-106.28	27.9125	12.0271	-84.8464	20.3858	-8.78656	-72.5183	17.5234	-35.892	-60.1035	9.21405	-54.1156	-113.591	57.2216	-58.8501	-106.583	54.9845	-89.2674	-96.9018	38.5676	-110.119	-143.506	57.4646	-67.535	-134.646	53.5679	-99.3396	-129.28	23.9553	-124.543	-154.349	34.3951	-70.5971	-149.196	7.40406	-84.324	-143.392	-17.9015	-66.16	-174.567	16.9567	-56.4641	-159.142	-8.48512	-58.9961	-149.199	-18.3159	-30.738	-164.215	50.5219	-14.9233	-171.578	44.6354	16.2816	-138.375	51.8588	6.79328	
173	1.44167	-110.631	25.256	11.6477	-90.8881	17.8906	-11.2146	-70.8159	13.7336	-35.0949	-64.4999	6.80007	-53.2285	-117.418	53.4109	-58.5205	-106.227	49.7398	-91.4029	-103.531	33.213	-110.621	-144.331	53.9847	-67.0547	-137.132	48.0287	-100.589	-129.278	19.1333	-122.971	-156.726	30.9322	-65.0305	-154.709	4.63969	-82.7245	-140.104	-20.9849	-64.3427	-173.159	14.5748	-56.517	-159.878	-10.8847	-56.8634	-151.813	-20.5952	-29.004	-165.489	48.9336	-10.5992	-170.497	41.308	15.487	-134.499	51.1416	5.63217	
174	1.45	-110.884	22.6014	12.4634	-92.5044	16.9812	-10.1776	-71.4904	12.0011	-33.5039	-68.1683	5.87129	-53.4249	-114.865	51.1874	-55.4496	-109.695	46.5009	-88.9858	-102.198	27.2997	-110.378	-144.884	51.6379	-66.5123	-139.688	43.4633	-99.888	-133.879	18.7752	-119.475	-160.94	26.7525	-66.4164	-149.884	0.905731	-80.1524	-142.789	-23.6215	-60.7703	-174.804	11.2457	-55.0466	-160.477	-11.9978	-56.8485	-152.327	-21.5234	-28.8171	-170.241	46.5961	-12.4938	-173.397	39.9978	18.273	-136.737	47.8774	8.31113	
175	1.45833	-111.541	19.7631	17.7024	-88.3464	14.5486	-6.86556	-75.0303	9.32623	-31.1649	-62.8444	2.04891	-50.2842	-118.911	47.9012	-56.6045	-106.414	46.0505	-83.6369	-99.7477	26.0588	-107.1	-145.583	50.0015	-65.7747	-141.575	44.0201	-95.1262	-132.689	12.6229	-118.557	-159.079	24.6644	-63.8222	-149.323	-1.8103	-78.0901	-142.49	-25.0226	-60.8607	-175.495	8.40274	-54.504	-162.459	-14.8644	-54.9211	-151.264	-24.7228	-28.0963	-168.12	41.8178	-6.00441	-170.768	37.0448	20.1883	-137.103	44.7291	11.0921	
